# xmcd
#
# Track frame offsets:
#	150
#	10452
#	23462
#	38547
#	57207
#	74122
#	84567
#	104407
#	115657
#	133985
#	154692
#	173442
#
# Disc length: 2540 seconds
# Revision: 3
# Processed by: cddbd v1.5.2PL0 Copyright (c) Steve Scherf et al.
# Submitted via: dBpowerAMP V12.0
#
DISCID=9409ea0c
DTITLE=Various Artist - New Country Volume 3 Number 4
DYEAR=1996
DGENRE=Country
TTITLE0=The Cornell Hurd Band - I Don't Care What It Is That You Did When You Lived In Ft. Worth
TTITLE1=Tom Russell - The Rose Of The San Joaquin
TTITLE2=David Young - Two Hearts
TTITLE3=Blue Highway - I Can Stand The Truth
TTITLE4=Fred Eaglesmith - Wilder Than Her
TTITLE5=David Parmley, Scott Vestal and Continental Divide - New Highway
TTITLE6=John McEven - Homecoming
TTITLE7=Tom T. Hall - Shoes And Dress That Alice Wore
TTITLE8=Rory Block - You Don't Mind
TTITLE9=Alejandro Escovedo - 2am
TTITLE10=Robert Earl Keen - Rolling By
TTITLE11=Toby Keith - Does That Blue Moon Ever Shine On You
EXTD=
EXTT0=
EXTT1=
EXTT2=
EXTT3=
EXTT4=
EXTT5=
EXTT6=
EXTT7=
EXTT8=
EXTT9=
EXTT10=
EXTT11=
PLAYORDER=
